# xmcd
#
# Track frame offsets:
#	150
#	17462
#	34727
#	53805
#	74200
#	90767
#	107590
#	123702
#	142632
#	162165
#
# Disc length: 2428 seconds
#
# Revision: 1
# Processed by: cddbd v1.5PL3 Copyright (c) Steve Scherf et al.
# Submitted via: CDex 1.50Beta5
#
DISCID=79097a0a
DTITLE=ラブ・ポーション - ナイチンゲールになれなくて…
DYEAR=1900
DGENRE=Pop
TTITLE0=お嬢様はお辛いのがお好き
TTITLE1=ペーヴメントで I love you
TTITLE2=アバンチュール・・・したい!
TTITLE3=ミツバチのささやき
TTITLE4=ちぎれたハートをつくろいもせずに
TTITLE5=ナイチンゲール
TTITLE6=Goin' Back to 小さな部屋
TTITLE7=Dancin' in the heaven
TTITLE8=キラリ、恋めいてSay Good-bye
TTITLE9=ラスト・ビギニング
EXTD=
EXTT0=
EXTT1=
EXTT2=
EXTT3=
EXTT4=
EXTT5=
EXTT6=
EXTT7=
EXTT8=
EXTT9=
PLAYORDER=
